<svg width="365" height="36" viewBox="0 0 365 36" fill="none" xmlns="http://www.w3.org/2000/svg">
<path d="M19.308 10.9515C19.1568 9.53613 18.5193 8.43407 17.3956 7.64534C16.2828 6.85661 14.8349 6.46224 13.0522 6.46224C11.7989 6.46224 10.7238 6.65132 9.82706 7.02948C8.93029 7.40764 8.2442 7.92085 7.7688 8.56912C7.2934 9.21739 7.0503 9.9575 7.0395 10.7894C7.0395 11.4809 7.19616 12.0806 7.50949 12.5884C7.83363 13.0962 8.27121 13.5284 8.82224 13.8849C9.37327 14.2307 9.98373 14.5224 10.6536 14.7601C11.3235 14.9978 11.9988 15.1977 12.6794 15.3598L15.7911 16.1377C17.0445 16.4294 18.2492 16.8238 19.4053 17.3208C20.5721 17.8178 21.6148 18.4444 22.5332 19.2008C23.4623 19.9571 24.1971 20.8701 24.7373 21.9397C25.2775 23.0093 25.5476 24.2627 25.5476 25.6997C25.5476 27.6445 25.0506 29.357 24.0566 30.8372C23.0626 32.3066 21.6256 33.4573 19.7456 34.2893C17.8764 35.1104 15.6129 35.521 12.955 35.521C10.3727 35.521 8.13075 35.1212 6.22916 34.3217C4.33837 33.5221 2.85815 32.3552 1.78851 30.821C0.729665 29.2868 0.157026 27.4176 0.0705896 25.2135H5.98606C6.07249 26.3695 6.42904 27.3311 7.0557 28.0983C7.68237 28.8654 8.49811 29.438 9.50292 29.8162C10.5185 30.1943 11.653 30.3834 12.9063 30.3834C14.2137 30.3834 15.359 30.1889 16.3422 29.8C17.3362 29.4002 18.1141 28.8492 18.676 28.1469C19.2378 27.4338 19.5241 26.6018 19.5349 25.651C19.5241 24.7867 19.2702 24.0736 18.7732 23.5118C18.2762 22.9391 17.5793 22.4637 16.6825 22.0856C15.7965 21.6966 14.7593 21.3509 13.5708 21.0483L9.79465 20.0759C7.06111 19.3736 4.9002 18.3094 3.31194 16.8832C1.73448 15.4462 0.945755 13.5392 0.945755 11.1622C0.945755 9.20659 1.47518 7.49407 2.53402 6.02466C3.60366 4.55525 5.05687 3.41537 6.89364 2.60503C8.7304 1.78389 10.8103 1.37332 13.1332 1.37332C15.4886 1.37332 17.5523 1.78389 19.3242 2.60503C21.107 3.41537 22.5061 4.54444 23.5218 5.99225C24.5374 7.42925 25.0614 9.08234 25.0938 10.9515H19.308ZM41.6693 35.5048C39.1735 35.5048 37.018 34.9861 35.2028 33.9489C33.3984 32.9009 32.0101 31.4207 31.0377 29.5083C30.0653 27.5851 29.579 25.3215 29.579 22.7176C29.579 20.157 30.0653 17.9096 31.0377 15.9756C32.0209 14.0308 33.393 12.5182 35.1542 11.4377C36.9153 10.3465 38.9844 9.80084 41.3614 9.80084C42.8956 9.80084 44.3434 10.0493 45.7048 10.5463C47.0769 11.0325 48.2871 11.7889 49.3351 12.8153C50.3939 13.8417 51.2259 15.1491 51.8309 16.7373C52.436 18.3148 52.7385 20.1948 52.7385 22.3773V24.1762H32.3342V20.2218H47.1148C47.104 19.0981 46.8609 18.0987 46.3855 17.2235C45.9101 16.3376 45.2456 15.6407 44.392 15.1329C43.5493 14.625 42.5661 14.3711 41.4424 14.3711C40.2431 14.3711 39.1897 14.6629 38.2821 15.2463C37.3745 15.8189 36.6668 16.5753 36.159 17.5153C35.662 18.4444 35.4081 19.4655 35.3973 20.5783V24.0304C35.3973 25.4782 35.662 26.7207 36.1914 27.7579C36.7208 28.7844 37.4609 29.5731 38.4117 30.1241C39.3625 30.6643 40.4754 30.9345 41.7503 30.9345C42.6039 30.9345 43.3764 30.8156 44.0679 30.5779C44.7594 30.3294 45.359 29.9674 45.8668 29.492C46.3747 29.0167 46.7582 28.4278 47.0175 27.7255L52.4954 28.3414C52.1497 29.7892 51.4906 31.0533 50.5182 32.1338C49.5566 33.2034 48.3249 34.0353 46.823 34.6296C45.3212 35.213 43.6033 35.5048 41.6693 35.5048ZM63.5687 20.4325V35.0186H57.7018V10.125H63.3094V14.3549H63.6011C64.1737 12.9612 65.0867 11.8537 66.34 11.0325C67.6042 10.2114 69.1654 9.80084 71.0238 9.80084C72.7417 9.80084 74.2381 10.1682 75.5131 10.9029C76.7988 11.6376 77.7928 12.7018 78.4951 14.0956C79.2082 15.4894 79.5593 17.1803 79.5485 19.1683V35.0186H73.6817V20.0759C73.6817 18.412 73.2495 17.1101 72.3852 16.1701C71.5316 15.2301 70.3485 14.7601 68.8359 14.7601C67.8094 14.7601 66.8965 14.987 66.0969 15.4408C65.3082 15.8838 64.6869 16.5266 64.2332 17.3694C63.7902 18.2121 63.5687 19.2332 63.5687 20.4325ZM97.9432 10.125V14.6629H83.6326V10.125H97.9432ZM87.1657 4.16088H93.0326V27.531C93.0326 28.3198 93.1514 28.9248 93.3891 29.3462C93.6376 29.7568 93.9618 30.0377 94.3615 30.1889C94.7613 30.3402 95.2043 30.4158 95.6905 30.4158C96.0578 30.4158 96.3928 30.3888 96.6953 30.3348C97.0086 30.2808 97.2463 30.2322 97.4084 30.1889L98.397 34.7755C98.0837 34.8835 97.6353 35.0023 97.0518 35.132C96.4792 35.2617 95.7769 35.3373 94.945 35.3589C93.4755 35.4021 92.152 35.1806 90.9743 34.6944C89.7966 34.1974 88.862 33.4303 88.1705 32.3931C87.4899 31.3558 87.1549 30.0593 87.1657 28.5034V4.16088ZM102.85 35.0186V10.125H108.717V35.0186H102.85ZM105.799 6.5919C104.87 6.5919 104.071 6.28397 103.401 5.66811C102.731 5.04145 102.396 4.29054 102.396 3.41537C102.396 2.5294 102.731 1.77849 103.401 1.16263C104.071 0.53597 104.87 0.222639 105.799 0.222639C106.739 0.222639 107.539 0.53597 108.198 1.16263C108.868 1.77849 109.203 2.5294 109.203 3.41537C109.203 4.29054 108.868 5.04145 108.198 5.66811C107.539 6.28397 106.739 6.5919 105.799 6.5919ZM120.616 20.4325V35.0186H114.75V10.125H120.357V14.3549H120.649C121.222 12.9612 122.135 11.8537 123.388 11.0325C124.652 10.2114 126.213 9.80084 128.072 9.80084C129.79 9.80084 131.286 10.1682 132.561 10.9029C133.847 11.6376 134.841 12.7018 135.543 14.0956C136.256 15.4894 136.607 17.1803 136.596 19.1683V35.0186H130.729V20.0759C130.729 18.412 130.297 17.1101 129.433 16.1701C128.579 15.2301 127.396 14.7601 125.884 14.7601C124.857 14.7601 123.944 14.987 123.145 15.4408C122.356 15.8838 121.735 16.5266 121.281 17.3694C120.838 18.2121 120.616 19.2332 120.616 20.4325ZM153.581 35.5048C151.085 35.5048 148.93 34.9861 147.115 33.9489C145.31 32.9009 143.922 31.4207 142.949 29.5083C141.977 27.5851 141.491 25.3215 141.491 22.7176C141.491 20.157 141.977 17.9096 142.949 15.9756C143.933 14.0308 145.305 12.5182 147.066 11.4377C148.827 10.3465 150.896 9.80084 153.273 9.80084C154.807 9.80084 156.255 10.0493 157.617 10.5463C158.989 11.0325 160.199 11.7889 161.247 12.8153C162.306 13.8417 163.138 15.1491 163.743 16.7373C164.348 18.3148 164.65 20.1948 164.65 22.3773V24.1762H144.246V20.2218H159.027C159.016 19.0981 158.773 18.0987 158.297 17.2235C157.822 16.3376 157.157 15.6407 156.304 15.1329C155.461 14.625 154.478 14.3711 153.354 14.3711C152.155 14.3711 151.101 14.6629 150.194 15.2463C149.286 15.8189 148.579 16.5753 148.071 17.5153C147.574 18.4444 147.32 19.4655 147.309 20.5783V24.0304C147.309 25.4782 147.574 26.7207 148.103 27.7579C148.633 28.7844 149.373 29.5731 150.323 30.1241C151.274 30.6643 152.387 30.9345 153.662 30.9345C154.516 30.9345 155.288 30.8156 155.98 30.5779C156.671 30.3294 157.271 29.9674 157.779 29.492C158.286 29.0167 158.67 28.4278 158.929 27.7255L164.407 28.3414C164.061 29.7892 163.402 31.0533 162.43 32.1338C161.468 33.2034 160.237 34.0353 158.735 34.6296C157.233 35.213 155.515 35.5048 153.581 35.5048ZM175.48 1.82711V35.0186H169.614V1.82711H175.48ZM204.341 35.0186H193.093V1.82711H204.567C207.863 1.82711 210.694 2.49159 213.06 3.82054C215.437 5.13869 217.263 7.03488 218.538 9.50911C219.813 11.9833 220.45 14.9438 220.45 18.3904C220.45 21.8479 219.807 24.8191 218.522 27.3041C217.247 29.7892 215.404 31.6962 212.995 33.0251C210.596 34.3541 207.712 35.0186 204.341 35.0186ZM199.106 29.8162H204.049C206.361 29.8162 208.29 29.3948 209.835 28.5521C211.38 27.6985 212.541 26.429 213.319 24.7435C214.097 23.0472 214.486 20.9295 214.486 18.3904C214.486 15.8514 214.097 13.7445 213.319 12.0698C212.541 10.3843 211.391 9.12555 209.867 8.29361C208.354 7.45086 206.474 7.02948 204.227 7.02948H199.106V29.8162ZM236.924 35.5048C234.428 35.5048 232.273 34.9861 230.458 33.9489C228.653 32.9009 227.265 31.4207 226.293 29.5083C225.32 27.5851 224.834 25.3215 224.834 22.7176C224.834 20.157 225.32 17.9096 226.293 15.9756C227.276 14.0308 228.648 12.5182 230.409 11.4377C232.17 10.3465 234.239 9.80084 236.616 9.80084C238.151 9.80084 239.598 10.0493 240.96 10.5463C242.332 11.0325 243.542 11.7889 244.59 12.8153C245.649 13.8417 246.481 15.1491 247.086 16.7373C247.691 18.3148 247.994 20.1948 247.994 22.3773V24.1762H227.589V20.2218H242.37C242.359 19.0981 242.116 18.0987 241.64 17.2235C241.165 16.3376 240.501 15.6407 239.647 15.1329C238.804 14.625 237.821 14.3711 236.697 14.3711C235.498 14.3711 234.445 14.6629 233.537 15.2463C232.629 15.8189 231.922 16.5753 231.414 17.5153C230.917 18.4444 230.663 19.4655 230.652 20.5783V24.0304C230.652 25.4782 230.917 26.7207 231.446 27.7579C231.976 28.7844 232.716 29.5731 233.667 30.1241C234.618 30.6643 235.73 30.9345 237.005 30.9345C237.859 30.9345 238.631 30.8156 239.323 30.5779C240.014 30.3294 240.614 29.9674 241.122 29.492C241.63 29.0167 242.013 28.4278 242.273 27.7255L247.75 28.3414C247.405 29.7892 246.746 31.0533 245.773 32.1338C244.812 33.2034 243.58 34.0353 242.078 34.6296C240.576 35.213 238.858 35.5048 236.924 35.5048ZM274.479 10.125L265.614 35.0186H259.132L250.266 10.125H256.522L262.243 28.6169H262.503L268.24 10.125H274.479ZM278.539 35.0186V10.125H284.406V35.0186H278.539ZM281.489 6.5919C280.56 6.5919 279.76 6.28397 279.09 5.66811C278.42 5.04145 278.085 4.29054 278.085 3.41537C278.085 2.5294 278.42 1.77849 279.09 1.16263C279.76 0.53597 280.56 0.222639 281.489 0.222639C282.429 0.222639 283.228 0.53597 283.887 1.16263C284.557 1.77849 284.892 2.5294 284.892 3.41537C284.892 4.29054 284.557 5.04145 283.887 5.66811C283.228 6.28397 282.429 6.5919 281.489 6.5919ZM301.298 35.5048C298.813 35.5048 296.679 34.9591 294.896 33.8679C293.124 32.7766 291.757 31.2694 290.796 29.3462C289.845 27.4122 289.369 25.1865 289.369 22.669C289.369 20.1407 289.856 17.9096 290.828 15.9756C291.8 14.0308 293.173 12.5182 294.944 11.4377C296.727 10.3465 298.834 9.80084 301.265 9.80084C303.286 9.80084 305.074 10.1736 306.63 10.9191C308.196 11.6538 309.444 12.6964 310.373 14.047C311.303 15.3868 311.832 16.9534 311.962 18.747H306.354C306.127 17.5477 305.587 16.5482 304.733 15.7487C303.891 14.9384 302.762 14.5332 301.346 14.5332C300.147 14.5332 299.093 14.8573 298.186 15.5056C297.278 16.1431 296.571 17.0615 296.063 18.2608C295.566 19.4601 295.317 20.8971 295.317 22.5718C295.317 24.2681 295.566 25.7267 296.063 26.9476C296.56 28.1577 297.257 29.0923 298.153 29.7514C299.061 30.3996 300.125 30.7238 301.346 30.7238C302.211 30.7238 302.983 30.5617 303.664 30.2376C304.355 29.9026 304.933 29.4218 305.398 28.7952C305.862 28.1685 306.181 27.4068 306.354 26.51H311.962C311.821 28.2711 311.303 29.8324 310.406 31.1938C309.509 32.5443 308.288 33.6032 306.743 34.3703C305.198 35.1266 303.383 35.5048 301.298 35.5048ZM327.8 35.5048C325.304 35.5048 323.148 34.9861 321.333 33.9489C319.529 32.9009 318.14 31.4207 317.168 29.5083C316.196 27.5851 315.709 25.3215 315.709 22.7176C315.709 20.157 316.196 17.9096 317.168 15.9756C318.151 14.0308 319.523 12.5182 321.285 11.4377C323.046 10.3465 325.115 9.80084 327.492 9.80084C329.026 9.80084 330.474 10.0493 331.835 10.5463C333.207 11.0325 334.417 11.7889 335.465 12.8153C336.524 13.8417 337.356 15.1491 337.961 16.7373C338.566 18.3148 338.869 20.1948 338.869 22.3773V24.1762H318.465V20.2218H333.245C333.234 19.0981 332.991 18.0987 332.516 17.2235C332.04 16.3376 331.376 15.6407 330.522 15.1329C329.68 14.625 328.696 14.3711 327.573 14.3711C326.373 14.3711 325.32 14.6629 324.412 15.2463C323.505 15.8189 322.797 16.5753 322.289 17.5153C321.792 18.4444 321.538 19.4655 321.528 20.5783V24.0304C321.528 25.4782 321.792 26.7207 322.322 27.7579C322.851 28.7844 323.591 29.5731 324.542 30.1241C325.493 30.6643 326.606 30.9345 327.881 30.9345C328.734 30.9345 329.507 30.8156 330.198 30.5779C330.89 30.3294 331.489 29.9674 331.997 29.492C332.505 29.0167 332.889 28.4278 333.148 27.7255L338.626 28.3414C338.28 29.7892 337.621 31.0533 336.649 32.1338C335.687 33.2034 334.455 34.0353 332.953 34.6296C331.452 35.213 329.734 35.5048 327.8 35.5048ZM363.507 16.7049L358.159 17.2884C358.008 16.7481 357.743 16.2403 357.365 15.7649C356.997 15.2895 356.5 14.906 355.874 14.6142C355.247 14.3225 354.48 14.1767 353.572 14.1767C352.352 14.1767 351.325 14.4414 350.493 14.9708C349.672 15.5002 349.267 16.1863 349.278 17.029C349.267 17.753 349.532 18.3418 350.072 18.7956C350.623 19.2494 351.53 19.6221 352.795 19.9139L357.041 20.8214C359.396 21.3292 361.146 22.1342 362.292 23.2362C363.448 24.3383 364.031 25.7807 364.042 27.5634C364.031 29.1301 363.572 30.5131 362.664 31.7124C361.768 32.9009 360.52 33.8301 358.921 34.4999C357.322 35.1698 355.485 35.5048 353.41 35.5048C350.364 35.5048 347.911 34.8673 346.053 33.5924C344.194 32.3066 343.087 30.5185 342.73 28.2279L348.451 27.6769C348.71 28.8006 349.261 29.6487 350.104 30.2214C350.947 30.794 352.044 31.0803 353.394 31.0803C354.788 31.0803 355.906 30.794 356.749 30.2214C357.603 29.6487 358.029 28.941 358.029 28.0983C358.029 27.3852 357.754 26.7963 357.203 26.3317C356.663 25.8671 355.82 25.5106 354.674 25.2621L350.428 24.3707C348.041 23.8737 346.274 23.0364 345.129 21.8587C343.983 20.6702 343.416 19.1683 343.427 17.3532C343.416 15.8189 343.832 14.49 344.675 13.3663C345.528 12.2318 346.712 11.3567 348.224 10.7408C349.748 10.1142 351.503 9.80084 353.491 9.80084C356.409 9.80084 358.705 10.4221 360.379 11.6646C362.065 12.9071 363.107 14.5872 363.507 16.7049Z" fill="white"/>
</svg>
